<svg width="38" height="34" viewBox="0 0 38 34" fill="none" xmlns="http://www.w3.org/2000/svg">
<path d="M0 11.649L18.4938 0.972771L19 0.679688L19.5062 0.972771L38 11.649L36.9877 13.411L19 3.0261L1.0123 13.411L0 11.649Z" fill="#9DDC21"/>
<path d="M25.4009 22.9114C22.859 25.077 21.0667 27.9906 20.2802 31.236C23.6285 30.969 26.8089 29.6593 29.3742 27.4909C31.9395 25.3225 33.7605 22.4045 34.5813 19.1474C31.1971 19.3867 27.9791 20.7061 25.4009 22.9114ZM12.6009 22.9114C10.0216 20.707 6.8025 19.3894 3.41786 19.1526C4.23854 22.4099 6.05968 25.328 8.62515 27.4965C11.1906 29.6649 14.3713 30.9746 17.7198 31.2412C16.9353 27.994 15.1435 25.0782 12.6009 22.9114ZM2.14638 17.0845C5.78366 17.0539 9.3441 18.1311 12.3543 20.1731C15.3645 22.215 17.6819 25.1248 18.9983 28.5156C20.3155 25.1249 22.6335 22.2152 25.644 20.1734C28.6546 18.1316 32.2152 17.0542 35.8528 17.0845L37.0503 17.0941L36.8494 18.2725C36.4105 20.8369 35.4245 23.2766 33.9585 25.4259C32.4924 27.5752 30.5808 29.3836 28.3535 30.7281L28.2952 30.762L28.103 30.876L27.8421 31.0264L27.8056 31.0464C25.1122 32.5378 22.0839 33.3202 19.0052 33.3202C15.9265 33.3202 12.8983 32.5378 10.2049 31.0464L10.157 31.0203L9.90744 30.8768L9.70307 30.7559L9.6561 30.7281C7.4266 29.3841 5.51289 27.5755 4.0453 25.4254C2.5777 23.2752 1.59069 20.8341 1.15146 18.2681L0.950562 17.0906L2.14638 17.0845Z" fill="#9DDC21"/>
<path fill-rule="evenodd" clip-rule="evenodd" d="M22.5005 13.7224V16.8115H19.4114V13.7224H22.5005ZM19.4114 9.80878H22.5005V12.8979H19.4114V9.80878ZM18.5886 13.7224V16.8115H15.4995V13.7224H18.5886ZM15.4995 9.80878H18.5886V12.8979H15.4995V9.80878Z" fill="#9DDC21"/>
</svg>
