<svg width="795" height="683" viewBox="0 0 795 683" fill="none" xmlns="http://www.w3.org/2000/svg">
<path d="M0 229.447L386.838 6.13047L397.426 0L408.013 6.13047L794.852 229.447L773.677 266.303L397.426 49.0802L21.1745 266.303L0 229.447Z" fill="white" fill-opacity="0.02"/>
<path d="M531.317 465.026C478.148 510.323 440.658 571.269 424.206 639.153C494.244 633.569 560.769 606.172 614.427 560.816C668.086 515.459 706.177 454.424 723.344 386.294C652.556 391.3 585.245 418.898 531.317 465.026ZM263.577 465.026C209.626 418.917 142.292 391.356 71.4949 386.403C88.6611 454.537 126.754 515.575 180.417 560.933C234.079 606.29 300.61 633.685 370.651 639.262C354.241 571.339 316.761 510.35 263.577 465.026ZM44.8992 343.144C120.981 342.503 195.455 365.037 258.42 407.748C321.385 450.459 369.857 511.324 397.392 582.251C424.946 511.325 473.431 450.464 536.403 407.755C599.375 365.045 673.854 342.51 749.94 343.144L774.99 343.344L770.788 367.993C761.607 421.632 740.982 472.666 710.317 517.623C679.652 562.58 639.666 600.406 593.077 628.529L591.858 629.239L587.837 631.622L582.38 634.769L581.616 635.187C525.278 666.383 461.936 682.749 397.538 682.749C333.14 682.749 269.798 666.383 213.46 635.187L212.459 634.642L207.239 631.64L202.964 629.111L201.981 628.529C155.346 600.417 115.317 562.586 84.6192 517.611C53.9213 472.636 33.2758 421.574 24.0884 367.902L19.8861 343.271L44.8992 343.144Z" fill="white" fill-opacity="0.02"/>
<path fill-rule="evenodd" clip-rule="evenodd" d="M470.646 272.812V337.428H406.03V272.812H470.646ZM406.03 190.951H470.646V255.567H406.03V190.951ZM388.821 272.812V337.428H324.206V272.812H388.821ZM324.206 190.951H388.821V255.567H324.206V190.951Z" fill="white" fill-opacity="0.02"/>
</svg>
